<?xml version="1.0" encoding="UTF-8"?><svg id="Layer_1" xmlns="http://www.w3.org/2000/svg" viewBox="0 0 325.96 218.92"><defs><style>.cls-1{fill:#bad3ee;}</style></defs><path class="cls-1" d="M274.07,80.91c.38,.04,.21,.03,0,0h0Z"/><path class="cls-1" d="M285.24,143.57c-1-1.19-2.27-2.21-3.69-2.9l.04-1.1c.07-1.97,.17-3.94,.22-5.91,.08-3.41-2.39-6.56-5.91-6.98-3.53-.43-7.24,.33-10.73,.75-.08,.01-.16,.01-.24,.03,2.17-3.23,2.95-7.51,3.07-11.43,.08-2.69-.11-5.41-.49-8.07-.11-.71-.22-1.42-.36-2.13-.01-.05-.03-.11-.04-.14h0c0-.07-.01-.08-.01-.08-.05-.33-.12-.66-.2-.98-.4-1.81-.92-3.62-1.77-5.28-.3-.59-.65-1.1-1.04-1.56,2.5-.42,4.94-1.09,7.15-2.23,4.11-2.13,7.97-5.84,10.7-9.54,.42-.59,.83-1.21,1.18-1.85h.01c.12-.07,.24-.13,.34-.2,2.88-1.76,1.23-5.81,.07-8.12-2.19-4.38-5.15-8.7-9.1-11.71-3.34-2.55-7.12-4.46-11.02-6.02-8.53-3.39-17.73-5.16-26.79-6.5-17.2-2.53-34.69-3.36-52.08-3.45-18.69-.11-37.39-.91-56.09-.98-11.72-.04-23.33,.26-34.89,2.26-7.95,1.37-15.95,2.72-23.82,4.48-10.57,2.35-21.67,5.28-30.9,11.13-6.05,3.85-12.31,10.71-8.3,18.14,.17,.34,.36,.68,.59,.98,.91,1.17,2.36,2.01,3.74,2.55,.42,.17,2.51,.71,1.63-.43-.07-.08-.12-.17-.19-.26-.09-.16-.26-.49-.33-.59,0-.01-.01-.01-.01-.03h-.01c-.4-.87-.7-1.76-.85-2.68-.53-3.26,.86-6.44,3.03-9.02,4.76-5.63,12.26-8.75,19.02-11.18,11.11-3.96,22.71-6.05,34.28-8.15,9.91-1.8,19.67-3.22,29.76-3.47,9.04-.21,18.09-.07,27.14,.11,7.03,.12,14.07,.29,21.11,.47,4.54,.12,9.12,.38,13.67,.33,13.59-.17,27.23,.34,40.77,1.48,9.62,.83,19.26,1.94,28.69,4.03,4,.88,8.24,2.01,11.77,3.33,.85,.32,1.69,.66,2.52,1,.03,.01,.07,.03,.11,.05,.01,.01,.04,.01,.05,.03,.03,.01,.04,.01,.05,.03,.03,0,.04,.01,.04,.01,0,0,.01,0,.01,.01h.01s.01,.01,.03,.01h.01s.03,.01,.03,.01c.12,.05,.22,.11,.34,.16,.41,.21,.83,.41,1.24,.62,.09,.04,.16,.08,.21,.09h.01s.01,.03,.03,.03h.01s.01,.01,.01,.01c.01,0,.03,.01,.05,.03,.04,.03,.09,.07,.17,.11,.33,.2,.67,.39,1,.6,.01,0,.03,.01,.03,.01,.04,.03,.08,.05,.13,.08,.08,.07,.16,.12,.24,.17,.08,.05,.17,.12,.25,.18,.01,0,.01,.01,.03,.03h.01s.04,.03,.05,.04c0,0,.01,.01,.03,.01,0,0,0,.01,.01,.01,.03,.01,.05,.04,.08,.05l.03,.03s.07,.05,.08,.07c.21,.18,.44,.35,.63,.52h0s.04,.04,.05,.07c.03,.01,.05,.03,.08,.07,.13,.13,.33,.32,.4,.38,.67,.7,1.07,1.27,1.89,2.39,1.77,2.45,3.58,5.07,4.53,7.95,.75,2.32,.62,4.84-2.14,5.42-.98,.21-1.22,.18-2.22,.08-.22-.03-.45-.07-.67-.1,.05,.01,.11,.01,.17,.01-.09-.01-.22-.03-.38-.04-1.56-.16-3.12-.28-4.68-.41-22.17-1.85-44.42-3.15-66.66-3.48-14.03-.21-27.99,.51-42.02,.91-10.44,.29-20.86,.16-31.3-.35-7.33-.37-14.62-.63-21.93,.14-7.77,.81-15.34,2.64-23,4.1-7.74,1.47-15.44,1.81-23.33,1.84-4.47,.01-8.94-.04-13.41-.22-1.39-.07-.01,1.29,.41,1.63,1.02,.84,2.66,1.94,4.06,2.01,12.67,.54,25.55,.67,38.05-1.75,7.87-1.51,15.68-3.37,23.69-4.11,3.7-.34,7.41-.45,11.14-.37,7.94,.17,15.85,.76,23.79,.87,13.96,.17,27.88-.84,41.83-1.06,25.14-.41,50.33,.97,75.4,2.87,3.28,.25,6.57,.51,9.84,.8,.62,.04,1.23,.12,1.84,.16-1.41,2.14-3.59,3.96-5.6,5.66-.25,.22-.5,.43-.77,.62-.12,.08-.59,.38-.71,.47-.19,.11-1.48,.67-1.8,.77-1.86,.62-3.84,.93-5.79,1.12-10.71,1.01-21.23-1.63-31.92-1.51-10.85,.13-21.59,1.88-32.42,2.13-6.43,.14-12.87-.49-19.3-.51-8.2-.03-16.36,.98-24.47,2.07-7.03,.93-14.31,2.51-21.44,2.26-.52-.01-1.02-.05-1.53-.09-.22-.01-.44-.04-.66-.05h-.01c-.16-.01-.32-.04-.48-.05-1.32-.16-2.64-.34-3.96-.54-4.44-.63-8.88-1.25-13.33-1.72-4.16-.45-8.36-.83-12.54-.6-3.18,.17-6.33,.72-9.46,1.33-9.42,1.85-18.97,3.62-28.59,2.47-6.54-.79-13.38-2.59-19.01-5.36-.32-.16-.63-.31-.94-.49-2.42-1.34-7.32,3.01-4.61,4.52,2.42,1.35,5.05,2.44,7.74,3.32-.4,2.36-.49,4.8-.42,7.13,.2,6.64,2.27,12.99,5.75,18.6-2.25-.21-4.49-.42-6.74-.62-1.33-.1-2.38-.29-3.63,.25-2.27,.97-3.12,3.1-2.72,5.46,.29,1.73,1.02,3.33,1.89,4.84-1.36,.54-2.55,1.42-3.38,2.69-2.11,3.23-1.82,7.56-1.12,11.17,1.55,7.97,7.37,13.35,14.92,15.86,3.99,1.33,8.18,2.03,12.3,2.78,4.95,.92,9.87,2,14.84,2.85,11.52,1.97,23.19,3.1,34.84,3.91,9.79,.68,19.58,.91,29.37,1.37,1.4,.08,2.6,.14,4.29,.29,1.22,.11,2.42,.22,3.62,.34,5.71,.59,11.36,.87,17.11,.72,15.88-.37,31.75-1.84,47.55-3.16,11.63-.98,23.25-2.05,34.78-3.77,7.16-1.06,14.32-2.31,21.28-4.32,5.46-1.58,13.13-3.74,15.85-9.33,.67-1.38,.81-2.87,.9-4.38,.01-.29,.04-.59,.04-.88,.03-.14,.03-.28,.05-.41,.73-3.06,.22-5.59-1.86-8.06ZM52.02,101.97s.03,.01,.04,.01c4.89,1.14,9.91,1.75,14.93,1.77,5.67,.03,11.32-.83,16.9-1.8,7.12-1.22,13.05-2.72,20.23-2.36,8.15,.41,16.14,2.03,24.24,2.85,6.06,.62,12.15-.43,18.15-1.25,9.19-1.25,18.4-2.65,27.69-2.86,6.06-.13,12.1,.37,18.15,.49,11,.22,21.93-1.6,32.9-2.03,5.65-.22,11.1,.21,16.7,.83,5.52,.6,11.11,1.04,16.69,.74,.2-.01,.38-.03,.58-.04,.19,.39,.34,.8,.5,1.21,.48,1.27,.82,2.59,1.11,3.91,.09,.47,.08,.38,.18,.92,.05,.34,.21,1.27,.29,1.84,.74,5.41,.9,11.41-1.16,16.55-.89,2.21-2.22,4.06-4.06,5.37-1.2,.01-2.4-.01-3.62-.09-4.91-.32-9.84-.59-14.78-.56-5.34,.04-10.65,.62-16,.67-9.6,.11-19.17-.89-28.79-.55-4.37,.16-8.75,.35-13.12,.18-5.17-.21-10.33-.7-15.5-1.01-10.95-.66-21.9-1.27-32.86-1.68-8.67-.34-17.17,.39-25.81,1.02-10.67,.79-21.4,1.51-32.12,1.39-5.51-.07-10.99-.47-16.49-.96-3.42-5.36-5.31-11.5-5.44-17.89-.05-2.21,.04-4.48,.46-6.65Zm230.35,45.49c-.16,.93-.16,1.9-.22,2.85v.03c-.01,.08-.03,.17-.04,.25-.04,.25-.08,.5-.13,.73-.11,.49-.26,.97-.46,1.42-.12,.26-.25,.51-.4,.76l-.04,.08s-.01,.03-.03,.04c-.09,.13-.18,.28-.29,.39-.48,.58-.96,1.12-1.53,1.6-1.56,1.34-3.42,2.34-5.3,3.18-7.44,3.33-16.1,4.84-24.2,6.18-15.62,2.57-31.43,3.82-47.2,5.11-11.4,.92-22.82,1.84-34.24,2.32-3.07,.13-6.13,.22-9.2,.22-1.15,0-2.3-.01-3.45-.05-.45-.01-.91-.03-1.36-.04-.24-.01-.48-.03-.71-.04-.17-.01-.22-.01-.22-.01-.04,0-.08-.01-.15-.01-3.25-.21-6.49-.63-9.72-.89-9.83-.83-19.72-.79-29.57-1.39-16.04-.98-31.94-2.73-47.69-5.85-6.16-1.22-12.55-1.96-18.51-3.96-.98-.33-1.93-.72-2.85-1.18-.49-.24-.73-.37-1.03-.56-.26-.16-.5-.33-.75-.5-.04-.03-.21-.17-.33-.26-.04-.04-.07-.05-.09-.08,0-.01-.01-.01-.01-.01-.12-.09-.24-.2-.34-.32h-.01s-.05-.07-.09-.1c-.11-.12-.25-.29-.29-.32h-.01c-.03-.05-.05-.08-.07-.12,0,0-.01,0-.01-.01-.01-.01-.03-.01-.03-.03-.01-.03-.04-.05-.04-.07h-.01v-.03c-.11-.12-.19-.24-.26-.37,0-.01-.01-.03-.03-.04l-.04-.08c-.03-.07-.07-.13-.08-.16-.16-.28-.3-.56-.42-.87-.15-.35-.38-1.08-.53-1.59-1.07-3.92-1.45-10.02,2.75-12.31,2.34-1.27,4.27-.66,6.53-.46,.62,.37,1.28,.68,1.93,.98,2.92,1.31,6.06,2.15,9.27,2.36,4.11,.29,8.16-.54,12.3-.12,2.76,.29,5.46,.96,8.2,1.23,4.81,.49,9.87,.31,14.69,.14,2.44-.08,4.99-.16,7.39-.74,2.25-.55,4.39-1.13,6.7-1.38,2.96-.33,5.94-.46,8.93-.38,2.15,.07,4.95,.21,6.75,.93,1.19,.49,1.89-.05,1.56-1.33-.36-1.34-1.72-2.99-3.04-3.52-3.54-1.43-7.62-1.46-11.4-1.4-3.83,.05-7.94,.22-11.64,1.34-6.68,2.02-14.23,1.22-21.14,1.12-3.55-.05-7.04-1.08-10.6-1.37-5.59-.45-11.06,.87-16.54-.7-1.53-.43-2.93-1.06-4.35-1.77-.09-.04-.16-.08-.2-.11h-.01c-.4-.22-.79-.43-1.24-.55-1.28-.37-2.71-.49-4.06-.43-.53-1.22-.71-2.56,.25-3.62,.73-.8,1.27-.84,2.17-1.13-.24,.04-.59-.07-.11-.01,.04,0,.07,0,.11,.01h.03c.25,.03,.49,.04,.73,.05,1.2,.11,2.39,.21,3.59,.32,3.98,.34,7.95,.67,11.93,1.01,7.85,.67,15.6,1.04,23.48,.83,8.36-.22,16.73-.76,25.06-1.39,6.25-.49,12.47-1.12,18.75-1.08,8.09,.03,16.2,.6,24.28,1.02,8.07,.41,16.16,.85,24.23,1.46,7.17,.54,14.25,.25,21.44,.08,7.5-.17,14.97,.43,22.47,.6,7.79,.18,15.56-.77,23.36-.62,7.08,.16,14.06,1.05,21.12,.28,3.06-.33,6.12-.8,9.18-1.05,.57-.05,1.16-.11,1.74-.12-.09,2.17-.22,4.32-.22,6.48,.01,.85,.01,1.73,.26,2.56,.25,.8,.74,1.54,1.28,2.17,.5,.58,1.12,1.17,1.85,1.5,0,0,.89,.2,1.02,.25-.01,0-.05,0-.11-.01-.28-.05,1.12,.31,1.2,.31,.08,.03,.33,.14,.54,.25-.07,.56-.34,1.63-.41,2.07Zm.82-1.92s.03,.01,.03,.01c0,.01,.01,.03,.01,.04-.01-.01-.03-.03-.04-.05Z"/><path class="cls-1" d="M172.19,141.72c2.57-.47,4.89-.41,7.4,.27,3.52,.95,7.01,1.79,10.65,2.17,4.46,.46,9.1,.46,13.53-.32,1.34-.24,2.66-.58,3.96-1,.44-.14,.87-.29,1.31-.42,1.65-.49-.62,.6-2.67-.4,4.21,2.04,9.6,2.37,14.2,2.47,1.57,.04,3.74,.36,5.21-.19,.6-.22,1.18-.69,1.75-.98,1.33-.67,2.72-1.23,4.14-1.66,.94-.29,1.89-.51,2.86-.66,.49-.08,.99-.15,1.48-.17,.92-.02-.55-.27,.7,.09,3.68,1.07,7.31,2.58,11.09,3.29,2.27,.43,4.73,.7,7.04,.4,1.68-.22,2.81-1.07,4.3-1.73,1.28-.57,3.36-.81,4.28-.75,.53,.04,.42,.04,1,.14,.84,.15-.35-.09,.24,.05,1.49,.35,3.12,.54,4.65,.42,1.03-.08,1.29-.39,.06-.68-2.95-.69-6.03-1.01-9.05-1.07-1.89-.04-3.82,.03-5.66,.46-1.66,.39-2.89,1.44-4.47,1.95-.14,.05-.64,.09-.73,.17,0,0,2.59,.41,1.88,.13-.8-.33-1.72-.49-2.54-.76-2.15-.71-4.3-1.43-6.49-2.04-4.82-1.34-10.19-1.72-15.09-.59-2.64,.61-5.34,1.58-7.64,3.06-.23,.15-.2,.03,.32-.03-.36,.04-.75,.02-1.12,.02-.8,0-1.61,0-2.41-.09-1.93-.24-3.67-1.14-5.55-1.57-3.1-.7-6.18-.76-9.19,.22-3.43,1.12-7.26,1.69-10.86,1.32-3.34-.35-6.52-1.66-9.8-2.29-4.66-.89-9.74-1.09-14.43-.24-1.31,.24,.88,.72,1.12,.76,1.41,.25,3.09,.5,4.52,.24h0Z"/></svg>