<?xml version="1.0" encoding="UTF-8"?><svg id="Layer_1" xmlns="http://www.w3.org/2000/svg" viewBox="0 0 497.46 244.6"><defs><style>.cls-1{fill:#ede5bb;}</style></defs><g><path class="cls-1" d="M377.43,90.96s-.07-.01-.13-.04c-.01-.01-.03-.03-.04-.03t-.03-.01c-.22-.17,.09,0,.2,.08Z"/><path class="cls-1" d="M281.65,200.35c-.07,.29-.15,.58-.24,.87-.01-.09-.03-.21-.01-.33,.03-.21,.12-.39,.25-.54Z"/><path class="cls-1" d="M377.08,90.74c-.07,0-.13-.01-.18-.04h-.03s-.01,0-.03,0c-.07-.03-.13-.04-.18-.05-.03,0-.04-.01-.07-.01,.01,0,.03-.01,.03-.01,.01,0,.03-.03,.03-.03h.03l.03-.03c.05,.01,.13,.04,.2,.08h.01s.01,0,.01,.01c.2,.04,.37,.09,.16,.08Z"/><path class="cls-1" d="M384.43,195.22c-.05,.01-.17,.05-.22,.07,.01-.01,.07-.03,.12-.05,.04-.01,.07-.01,.11-.01Z"/><path class="cls-1" d="M384.45,90.27c-.07-.03-.22-.12-.29-.17,.03,.01,.07,.03,.12,.05,.01,.01,.04,.01,.05,.03,.03,.03,.07,.04,.09,.07,.01,.01,.03,.01,.03,.03Z"/><path class="cls-1" d="M385.05,194.97s.04-.01,.04-.01c.2-.05-.34,.18-.04,.01Z"/><path class="cls-1" d="M385.86,90.94s.04,.01,.07,.03c.44,.2-.75-.24-.07-.03Z"/></g><g><path class="cls-1" d="M459.27,137.05c-3.1-4.75-7.73-8.45-13.26-9.98-3.32-.91-6.84-1.06-10.23-1.69-.65-.12-1.29-.25-1.94-.39,1.22-4.48,1.7-9.08,.58-13.68-4.19-17.05-26.61-16.55-40.06-18.51-1.74-.26-3.47-.55-5.19-.92-.22-.05-.46-.11-.7-.16,0,0-.01,.01-.08-.01h-.01s-.03-.01-.04-.01l-.11-.03c-.07-.03-.13-.04-.2-.05-.54-.16-1.07-.3-1.6-.49-.17-.05-.36-.13-.52-.17,.44,.2-.75-.24-.07-.03-.29-.13-.61-.26-.9-.42-.21-.1-.41-.24-.62-.34,.03,.03,.07,.04,.09,.07,.01,.01,.03,.01,.03,.03-.07-.03-.22-.12-.29-.17,.03,.01,.07,.03,.12,.05-.05-.04-.09-.08-.15-.11-2.02-1.33-4.15-2.01-6.42-2.32-.89-7.05-6.14-13.06-12.97-15.09-3.86-1.14-7.81-1.17-11.77-.84-4.53,.38-9.08,.6-13.62,.54-3.22-.04-5.88-.2-9.26-.74-.63-.09-1.26-.21-1.88-.33-.05-.01-.11-.01-.15-.03-.03,0-.07-.01-.12-.03-.03,0-.04-.01-.07-.01-.24-.07-.5-.12-.75-.2-.96-.25-1.93-.54-2.88-.89-.08-.03-.16-.07-.24-.09-.01,0-.03,0-.05-.01-.01-.01-.03-.01-.03-.01h-.01s-.07-.03-.09-.04h-.01s-.03-.01-.03-.03c-.03,0-.05-.01-.08-.03-.04-.03-.08-.04-.11-.05-.36-.17-.71-.33-1.06-.52-.32-.17-.63-.35-.94-.54-.11-.07-.18-.11-.24-.12,0,0,0-.01-.01-.01-.03-.03-.09-.09-.22-.2-.42-.35-.85-.72-1.24-1.13-.08-.08-.24-.29-.32-.39,0,0-.01,0-.01-.01s-.01-.03-.03-.04h-.01v-.03c-.08-.11-.15-.21-.22-.33-.2-.33-.37-.68-.5-1.05-.07-.16-.11-.32-.17-.47v-.05c-.55-4.15-2.63-8.08-5.61-11.01-3.13-3.06-6.98-3.9-11.1-4.67-3.83-.71-7.69-1.23-11.56-1.65-31.83-3.53-64.54-.77-95.33,7.85-5.05,1.4-10.03,2.98-14.95,4.74-2.43,.87-4.86,1.77-7.27,2.73-1.6,.63-3.33,1.18-4.8,2.09-3,1.84-4.57,5.09-5.38,8.39-.25,1.04-.46,2.07-.61,3.12-11.47,.51-23.22,2.07-34.16,5.36-6.26,1.88-14.49,4.66-17.89,10.75-1.19,2.13-1.53,4.61-1.47,7.15-6.31,1.19-12.59,2.59-18.81,4.17-4.33,1.12-8.72,2.28-12.85,4.02-1.65,.7-3.29,1.48-4.6,2.73-1.68,1.6-2.87,3.66-3.87,5.72-2.29,4.73-3.7,9.8-5.71,14.63-1.81,4.38-4,7.86-8.44,9.94-4.27,1.97-9.17,2.8-13.16,5.34-1.4,.91-2.56,2.22-2.68,3.95-.08,1.14,.28,2.43,.48,3.57,1.28,7.49,3.16,14.98,6.12,22,3.74,8.85,9.59,17.71,18.75,21.7,4.97,2.17,10.85,2.01,16.16,1.6,3.4-.26,7.24-.79,10.08-2.85,.05-.03,.09-.07,.15-.11,1.88,1.69,3.9,3.24,5.94,4.62,7.98,5.4,17.85,8.57,27.53,7.1,5.27-.81,10.15-3.04,14.52-6.01,9.53,9.29,26.41,8.01,38.55,5.78,2.26-.41,4.52-.89,6.76-1.43,.28,1,.57,1.98,.9,2.97,.9,2.69,2.03,5.53,4.15,7.51,1.72,1.63,3.96,2.43,6.17,3.15,2.87,.93,5.72,1.46,8.72,1.77,11.76,1.23,23.69,1.35,35.5,1.38,11.53,.01,23.21,.01,34.68-1.35,2.92-.34,5.44-1.1,7.5-3.28,1.86-1.96,3.17-4.44,4.25-6.86,1.22-2.74,2.23-5.57,3.1-8.45,9.53,1.06,19.13,1.76,28.71,1.77,3.28,0,6.54-.12,9.8-.49,2.4-.28,5.03-.68,7.19-1.88,1.89-1.05,3.33-2.9,4.53-4.65,1.82-2.66,3.29-5.55,4.66-8.48,3.77-8.05,6.72-16.49,9.35-24.96,3.05-9.8,5.63-19.77,7.69-29.83,1.94-9.53,3.26-19.18,5.07-28.74,.83-4.45,1.51-10.24,4.82-13.69,.13-.13,.28-.28,.42-.41l.05-.05s.03-.01,.03-.01h0s.05-.04,.09-.07c.34-.24,.69-.43,1.06-.63,.04-.03,.05-.03,.05-.04h.01s.05-.01,.09-.03c.03,0,.04-.01,.07-.03h.01c1.37,.46,3.26,.37,4.48-.24h.01s.03-.01,.03-.01c.01,0,.03-.03,.03-.03h.03l.03-.03c.05,.01,.13,.04,.2,.08h.01s.01,0,.01,.01c.2,.04,.37,.09,.16,.08-.07,0-.13-.01-.18-.04h-.03c.12,.08,.24,.13,.36,.18-.22-.17,.09,0,.2,.08-.03,0-.07-.01-.13-.04,1,.7,2.05,1.33,3.18,1.81,6.58,2.78,14.22,3.32,21.23,3.99,7.54,.72,15.64,1.57,21.26,7.1,6.49,6.39,5.05,16.58,2.26,24.33-3.96,11.09-9.31,21.83-14.81,32.24-3.38,6.41-6.96,12.72-10.95,18.76-.89,1.34-1.8,2.68-2.73,4-.18,.25-.36,.5-.55,.75h0c-2.25,3.12-4.7,6.1-7.57,8.62-.63,.56-1.45,1.21-2.33,1.76-.38,.22-.77,.43-1.15,.64-.01,.01-.03,.01-.04,.03,.2-.05-.34,.18-.04,.01-.01,0-.03,.01-.04,.01-.2,.08-.42,.14-.62,.22-.03,.01-.05,.01-.07,.03,.04-.01,.07-.01,.11-.01-.05,.01-.17,.05-.22,.07,.01-.01,.07-.03,.12-.05-.28,.03-.57,.09-.85,.13-.81,.1-1.62,.16-2.68,.18-1.11,.03-1.27,.01-2.39-.04-1.1-.05-2.19-.14-3.28-.26-7.05-.77-14.45-2.82-21.47-5.21-1.32-.45-2.63-.91-3.94-1.42-1.39-.54-3.86-.72-5.15,.16-1.39,.97,.28,1.84,1.19,2.19,4.7,1.85,9.59,3.32,14.49,4.57,8.76,2.23,18.6,4.32,27.64,2.61,4.76-.89,8.39-4.44,11.45-7.94,.09-.11,.18-.21,.26-.32,4.45,2.43,9.49,4.11,14.4,5.26,9.59,2.26,20.15,2.05,28.91-2.89,9.01-5.09,13.92-15.03,17.11-24.44,.87-2.59,1.63-5.21,2.29-7.86,.62-2.43,1.31-4.9,1.45-7.42,.32-5.5-1.49-10.93-4.49-15.5ZM120.49,203.8c-2.06,.5-4.13,.76-6.26,.74-1.03,0-1.76-.05-2.72-.18-1.22-.16-1.56-.24-2.46-.46-3-.76-5.4-1.9-8.22-3.75-1.61-1.06-2.07-1.42-3.42-2.53-1-.84-1.97-1.72-2.91-2.64-.34-.35-.69-.7-1.02-1.05,0,0,0-.01-.03-.03-.12-.14-.53-.59-.65-.72-.25-.29-.5-.58-.74-.88-.38-.51-.91-.93-1.51-1.26-.37-.58-.73-1.1-.92-1.47-6.68-12.3-13.36-24.6-20.04-36.91-.17-.32-.36-.64-.53-.96-.79-1.46-2.4-2.91-3.98-3.47-1.31-.46-1.94,.12-1.24,1.4,6.53,12.02,13.05,24.03,19.58,36.06,.75,1.4,1.52,2.81,2.3,4.21-.09,.13-.17,.26-.25,.39-.07,.09-.12,.18-.2,.26,0,.01-.01,.03-.03,.04-1.02,1.12-2.42,1.71-3.82,2.15-3.2,1.02-6.65,1.25-9.97,1.29-3.55,.04-7.27,.05-10.48-1.37-.12-.05-.17-.08-.2-.08h-.01s-.07-.05-.17-.1c-.32-.17-.61-.34-.91-.51-.01,0-.01-.01-.01-.01h-.01s-.07-.05-.09-.07c-.09-.07-.18-.13-.28-.2-.09-.07-.41-.32-.58-.43h-.01l-.05-.05c-.16-.14-.44-.38-.5-.43-.08-.07-.17-.16-.25-.24-.04-.03-.07-.05-.08-.08-.01,0-.01-.01-.03-.01h-.01v-.04c-.21-.2-.41-.39-.59-.59-.15-.16-.59-.68-.66-.74-1.56-1.88-3.14-4.48-4.48-7.15-2.64-5.3-4.41-11.05-5.79-16.8-.54-2.22-1-4.45-1.41-6.71-.28-1.55-.85-3.33-.45-4.65,.73-2.39,4.02-3.49,6.09-4.28,3.25-1.21,6.61-2.15,9.7-3.74,2.85-1.46,4.91-3.36,6.43-6.17,1.68-3.1,2.81-6.48,4.02-9.79,1.99-5.55,4.08-13.16,9.87-15.99,5.61-2.73,12.04-4.12,18.09-5.56,3.51-.84,7.04-1.61,10.58-2.35,.18,1.06,.36,2.09,.52,3.06,2.91,17.93,7.93,35.61,13.03,53.01,2.34,7.98,4.77,15.92,7.44,23.78,1.2,3.57,2.25,7.59,4.08,10.97-4.08,3.2-8.65,5.84-13.74,7.07Zm62.12-.37c-6.29,1.67-12.72,3.08-19.24,3.45-.61,.04-1.23,.07-1.84,.08-.05,.01-.24,.01-.38,.01h-.75c-.55-.01-1.1-.04-1.65-.05-.07,0-.24-.01-.37-.01-.05-.01-.11-.01-.13-.01h-.03c-.24-.01-.48-.04-.7-.07-.42-.04-.86-.09-1.28-.14-.01,0-.17-.03-.33-.04,0,0-.03,0-.08-.01h-.01s-.03-.01-.04-.01h-.01s-.03-.01-.03-.01c-.07,0-.12-.01-.12-.01l-.29-.05c-.38-.07-.77-.14-1.14-.22-.22-.05-.45-.11-.67-.17h-.05s-.12-.05-.24-.08c-2.4-.72-4.69-1.76-6.63-3.37-1.55-1.27-2.83-2.8-3.96-4.44-2.09-3.02-3.06-6.67-4.28-10.2-2.5-7.19-4.76-14.48-6.94-21.78-5.14-17.17-10.01-34.55-13.36-52.17-1.06-5.51-2.43-11.56-1.9-17.22,.57-6.23,7.16-9.65,12.35-11.72,7.21-2.86,14.49-4.12,22.1-5.15,1.78-.24,3.57-.45,5.35-.63,.11-.01,.49-.05,.74-.08h.05s.05-.01,.08-.01c.04,0,.07,0,.08-.01,.21-.01,.59-.05,.7-.07,.77-.07,1.53-.13,2.31-.2,.59-.04,1.2-.09,1.8-.12-.28,2.95-.28,5.93-.17,8.89,.22,6.09,.95,12.17,1.82,18.21,2.09,14.31,5.14,28.47,8.16,42.61,3.04,14.19,5.73,28.4,8.51,42.64,.79,4.06,1.57,8.15,2.6,12.17-.01,0-.03,.01-.04,.01Zm179.38-111.25c-3.1,4.79-3.78,11.3-4.73,16.77-1.78,10.22-3.32,20.49-5.6,30.61-2.29,10.13-5.05,20.17-8.35,30.03-2.66,7.95-5.58,15.97-9.66,23.32-1.27,2.3-2.68,4.66-4.56,6.52-.49,.49-.37,.41-.79,.68-.17,.12-.81,.43-.81,.46-.4,.16-.79,.26-1.2,.39-.01,0-.03,0-.03,.01-.03,0-.04,.01-.05,.01,0,0,0-.01-.04,0-.01,0-.04,.01-.08,.01-.32,.05-.63,.12-.95,.18-.65,.11-1.29,.18-1.96,.26-.12,.01-.2,.03-.25,.03-.01,0-.03,0-.04,.01h-.09c-.45,.03-.9,.07-1.35,.09-1.64,.1-3.28,.14-4.91,.16-.82,.01-1.64,.01-2.44,0h-.83c-.49-.01-.95-.03-1.43-.05-1.84-.05-3.67-.13-5.51-.24-5.69-.32-11.4-.79-17.08-1.39,1.11-4.03,1.98-8.12,2.83-12.17,4.44-21.13,6.9-42.67,9.46-64.08,1.07-9.03,2.1-18.07,3.36-27.08,.42-3.11,.87-6.21,1.47-9.29,.09-.46,.18-.91,.28-1.37,0,0,0-.01,.01-.04h0s0-.04,.01-.07v-.03s0-.01,.01-.03c0-.03,.01-.04,.01-.07v-.03c.04-.13,.07-.26,.08-.32,.07-.26,.12-.52,.2-.79,.18-.72,.42-1.39,.69-2.09,.04-.11,.15-.21,.17-.32,.7-.81,3.43-3.6,3.98-4.06,0,0,.18-.12,.34-.22,1.51,.8,3.75,.71,5.19-.16,1.37-.83,1.32-2.21-.05-2.98-2.43-1.38-5.22-1.8-7.93-.96-3.21,.98-5.69,3.62-7.81,6.1-1.22,1.43-1.66,2.91-2.09,4.71-1.48,6.38-2.21,12.95-3.03,19.44-2.6,20.58-4.77,41.23-7.91,61.73-1.49,9.71-3.14,19.43-5.48,28.97-.44,1.79-.89,3.61-1.39,5.43-.07,.29-.15,.58-.24,.87-1.29,4.69-2.93,9.36-5.5,13.39-.11,.17-.21,.33-.32,.49l-.03,.03s-.03,.04-.04,.05c-.08,.12-.16,.22-.25,.33-.34,.43-.7,.85-1.1,1.23-.15,.14-.29,.25-.44,.39,0,0-.01,0-.01,.01l-.12,.08c-.11,.04-.21,.11-.32,.18h-.01c-.32,.03-.63,.1-.95,.14-.45,.05-.89,.11-1.33,.16-.15,.01-.65,.07-.99,.11-.05,0-.12,.01-.17,.01h-.07s-.03,.01-.04,.01h-.04c-2.25,.2-4.5,.34-6.76,.46-12.55,.66-25.17,.64-37.73,.33-2.96-.08-5.93-.17-8.89-.3-.69-.04-1.37-.07-2.06-.11-.33-.01-.66-.04-1-.05h-.03c-.12,0-.33-.01-.33-.01-1.22-.08-2.4-.16-3.62-.25-2.09-.16-4.17-.34-6.26-.63-.69-.09-1.36-.2-2.05-.32-.05-.01-.09-.01-.15-.03h-.01c-.26-.09-.55-.14-.82-.22-.98-.3-1.94-.62-2.91-.96-.18-.07-.37-.14-.57-.21-.01,0-.01-.01-.03-.01-.26-.14-.54-.3-.81-.45h-.03s-.04-.04-.05-.04c-.04-.03-.09-.05-.13-.08-.01,0-.03-.01-.04-.03h-.01s-.04-.03-.05-.04c-.05-.04-.09-.08-.13-.11-.17-.16-.34-.3-.52-.46-.15-.14-.26-.3-.41-.46-.01-.01-.03-.03-.05-.05-.01-.01-.03-.04-.04-.07-.01,0-.01-.01-.03-.03-.04-.07-.09-.13-.13-.2-.79-1.21-1.4-2.49-1.93-3.85-1.81-4.75-2.81-9.82-3.83-14.78-1.55-7.56-2.79-15.17-4.28-22.73-2.72-13.75-5.87-27.43-8.65-41.19-2.63-13.06-5.19-26.25-6.12-39.56-.34-4.96-.49-10.03,.25-14.96,.26-1.77,.57-3.18,1.31-4.95,.29-.72,.65-1.39,1.04-2.05,.01-.01,.03-.04,.05-.08,.04-.05,.09-.13,.13-.17,0-.01,.01-.01,.01-.01h0l.03-.04c.04-.07,.09-.12,.15-.17,.26-.3,.54-.56,.82-.84,.05-.05,.08-.09,.11-.12h.01s.04-.03,.08-.04c.18-.11,.82-.42,.65-.37,2.33-.96,4.66-1.88,7.03-2.76,4.74-1.76,9.55-3.37,14.4-4.82,9.18-2.72,18.54-4.83,27.98-6.39,15.71-2.6,31.68-3.64,47.6-3.16,9.18,.26,18.96,1.05,28.6,2.78,.65,.12,1.29,.24,1.93,.37,.28,.05,.54,.12,.82,.17h.01s.08,.03,.12,.03c1.99,.52,3.5,1.48,4.91,3.06,2.4,2.68,3.13,5.78,4.08,9.11,.22,.76,.54,1.47,.98,2.14,1.74,2.6,4.52,4.19,7.37,5.36,5.1,2.06,10.73,2.65,16.17,2.93,4.12,.21,8.26,.14,12.38-.08,3.94-.22,8.05-.91,11.53-.31,.63,.12,2.3,.62,2.95,.96,1.2,.62,1.76,.96,2.6,1.71,1.59,1.38,2.55,2.74,3.47,4.74,.75,1.64,1.18,2.73,1.37,4.2-3.25,.41-6.3,1.6-8.2,4.54Zm-49.33-14.49c.25-.11,.67-.08,.05,0h-.05Zm143.41,83.71c-2.89,8.77-7.24,18.36-15.36,23.51-8.19,5.2-18.1,5.84-27.44,4-3.5-.7-7.05-1.69-10.42-3.03,2.91-3.85,5.48-7.94,7.94-12.04,7.17-11.98,13.42-24.58,18.87-37.43,.83-1.98,1.69-4,2.47-6.08,.89,.38,1.85,.66,2.76,.89,2.72,.74,5.54,1.18,8.34,1.59,4.7,.67,9.1,1.48,12.64,4.92,.67,.66,1.18,1.27,1.68,1.99,.38,.56,.73,1.21,.99,1.89,.67,1.75,.99,3.78,.9,5.74-.21,4.7-1.88,9.59-3.36,14.04Z"/><path class="cls-1" d="M396.73,183.16c-.18,.25-.36,.5-.55,.75,.07-.39,.22-.71,.55-.75Z"/></g></svg>