<?xml version="1.0" encoding="UTF-8"?><svg id="Layer_1" xmlns="http://www.w3.org/2000/svg" viewBox="0 0 389.63 392.08"><defs><style>.cls-1{fill:#95261f;}</style></defs><g><g><path class="cls-1" d="M235.31,124.68c-4.56,5.75-10.79,10.43-16.21,15.36-6.46,5.87-8.14,14.92-5.03,22.58,.86,2.14,2.1,4.17,3.73,6,.46,.51,.58,1.06,.46,1.6-.54,2.47-6.14,4.82-7.87,2.87-.92-1.04-1.76-2.14-2.48-3.29-1.49-2.32-2.59-4.86-3.22-7.51-.69-2.93-.82-5.99-.3-9.06,1.03-6.13,4.29-11.2,8.86-15.36,2.83-2.56,5.65-5.12,8.48-7.68,2.8-2.53,5.59-4.96,7.74-8.1,7.33-10.63,6.54-25.29-1.03-35.57-.66-.9-1.4-1.73-2.15-2.55-3.92-4.27-7.84-8.54-11.76-12.81-1.73-1.89-3.59-3.73-5.22-5.72-4.61-5.66-3.06-12.93,1.93-17.75,1.28-1.23,4.23-2.32,5.96-1.5,1.88,.88,.98,2.63-.16,3.73-3.8,3.64-2.06,9.16,1.02,12.52,2.79,3.05,5.58,6.08,8.36,9.12,5.3,5.76,11.26,11.31,14.19,18.72,4.57,11.47,2.38,24.74-5.28,34.39Z"/><path class="cls-1" d="M297.24,177.68c-.38,2.11-2.81,2.99-4.73,2.42-2.81-.84-5.67-1.59-8.55-2.24-16-3.69-32.47-5.39-48.83-6.62-1.66-.12-3.34-.25-5.01-.35-.56-.04-1.08-.31-1.4-.76-.94-1.33-1.71-2.75-2.3-4.21v-.03c-.52-1.25,.47-2.6,1.81-2.51,6.38,.41,12.74,.93,19.1,1.57,15.58,1.56,31.46,3.53,46.48,8.07,1.96,.59,3.84,2.48,3.43,4.67Z"/><path class="cls-1" d="M305.01,196.7c-2.02,1.04-4.14,1.88-6.29,2.64-13.86,4.84-28.73,6.92-43.28,8.57-21.11,2.43-42.41,3.45-63.65,3.64-21.93,.21-43.9-.49-65.74-2.49-16.06-1.47-32.41-3.4-47.98-7.72-4.9-1.35-9.95-2.94-14.35-5.51-3.18-1.85-6.71-4.59-7.29-8.49-1.22-8.31,10.79-12.04,16.74-13.95,14.23-4.59,29.39-6.52,44.2-8.1,2.61-.28,5.22-.53,7.84-.77,1.26-.12,2.45,.61,2.9,1.78,.49,1.25,1.05,2.49,1.73,3.67,1.71,2.99-12.48,2.86-19.21,3.74-7.52,.98-15.02,2.17-22.43,3.78-3.04,.66-6.06,1.39-9.05,2.24-2.67,.76-3.96,1.17-6.53,2.19-1.82,.74-3.55,1.59-5.26,2.56-.09,.05-.38,.25-.53,.34-.03,.03-.05,.04-.07,.05-.28,.22-.57,.43-.83,.67-.25,.21-.48,.46-.71,.68-.04,.04-.09,.08-.12,.13-.01,.01-.03,.01-.03,.03-.11,.2-.24,.42-.37,.6-.01,.01-.03,.03-.03,.04t-.01,.03s-.01,.03-.03,.04c-.03,.07-.04,.18-.03,.34,.03-.13,.04-.25,.07-.37,.01,.05,.01,.17-.05,.39h0s.01,.03,.01,.04c.13,.14,.26,.34,.37,.5-.21-.25-.44-.34,.05,.08,.01,0,.03,.01,.04,.03,.32,.26,.65,.53,.96,.8,.04,.04,.08,.07,.11,.09h.01s.05,.04,.08,.05c.75,.46,1.51,.91,2.29,1.31,.89,.45,1.78,.84,2.69,1.23,.01,0,.05,.01,.08,.03s.05,.03,.07,.04h.01s.04,0,.07,.03c.01-.01,.01,0,.03,0,.21,.09,.44,.17,.65,.25,.55,.21,1.12,.41,1.69,.6,5.79,2,11.78,3.37,17.78,4.54,17.02,3.31,34.39,4.87,51.68,5.89,21.84,1.29,43.76,1.5,65.63,.75,19.02-.66,38.09-2,56.91-4.86,6.98-1.05,13.94-2.32,20.78-4.07,5.1-1.3,8.92-2.36,13.59-4.75,4.04-2.06,9.39,4.31,4.78,6.65Z"/></g><path class="cls-1" d="M54.61,205.51c-.77,7.61-.46,15.44,.09,23.05,1.32,18.26,5.14,36.43,11.37,53.66,8.69,24.03,22,46.25,39.44,65.04,4.99,5.37,10.31,10.44,15.88,15.22,2.4,2.06,5.27,3.02,8.29,3.88,11.04,3.15,22.8,4.26,34.21,4.99,15.29,.98,30.63,.89,45.91-.23,7.25-.53,14.56-1.17,21.71-2.56,3.27-.63,7.37-1.28,10.15-3.26,.9-.64,1.76-1.58,1.82-2.74,.11-2.04-.93-4.07-2.58-5.3-1.01-.76-3.51-1.47-3.62,.6-.03,.6,.22-.43,.09-.11-.06,.14-.41,.44-.11,.21,.21-.17-.78,.53-1.06,.68-1.3,.72-2.45,1.03-3.97,1.43-2.62,.7-5.29,1.28-7.98,1.66-17.49,2.45-35.4,3.1-53.08,2.6-12.77-.36-25.7-1.42-38.21-4.1-1.88-.4-3.75-.84-5.59-1.38-.53-.15-1.84-.57-1.89-.58,0,0-1.05-.4-1.48-.6-.58-.27-1.27-1.01-.47-.19-.89-.92-2.02-1.7-2.98-2.55-2.51-2.21-4.94-4.51-7.31-6.87-17.33-17.22-30.76-37.84-39.7-60.5-6.59-16.69-10.57-34.06-12.24-51.76-.55-5.84-.85-11.72-.82-17.59,0-1.03,.02-2.05,.05-3.08,0-.37,.05-1.57,.01-.53,.02-.39,.03-.79,.05-1.18,.05-.96,.12-1.91,.18-2.87,0-.12,.02-.24,.03-.35,.2-2.01-.98-4.11-2.58-5.3-1.08-.8-3.41-1.43-3.62,.6h0Z"/><path class="cls-1" d="M301.33,209.22c.33,3.31,.34,5.77,.34,8.98,0,8.16-.6,16.32-1.68,24.41-3.46,25.94-11.96,51.28-25.6,73.71-10,16.44-22.64,31.09-37.31,43.6-1.31,1.12-.72,2.32,.85,2.53,1.94,.26,4.29-.67,5.75-1.91,25.02-21.34,43.97-48.84,54.91-79.75,7.04-19.88,10.95-41.03,11.22-62.12,.05-4.04,.05-8.13-.35-12.15-.23-2.25-8.42-.2-8.13,2.71h0Z"/><path class="cls-1" d="M310.78,230.54c6.55-3.14,14.38-4.93,21.21-1.61,1.43,.69,3.48,2.2,4.74,3.56,1.71,1.83,2.84,3.57,3.95,5.84,5.63,11.49,4.38,25.75,1.58,37.81-3.45,14.84-10.22,28.74-19.66,40.75-7.13,9.08-16.32,17.98-27.42,22.02-4.88,1.77-9.57,2.46-14.08,1.46-1.36-.3-1.25-.25-2.48-.78s-2.42-1.17-3.53-1.93c-2.83-1.93-5.95-4.28-7.83-7.22-1.17-1.82-3.33-3.05-5.55-2.43-1.85,.52-3.14,2.72-2,4.51,3.76,5.88,10.14,11.22,16.74,13.69,5.41,2.03,11.11,2.25,16.76,1.17,12.68-2.44,23.76-11.31,32.14-20.65,11.4-12.71,19.78-28.47,24.19-44.9,3.83-14.27,5.37-30.56-.79-44.44-2.8-6.3-7.5-11.62-13.73-14.73-9.51-4.75-20.4-2.7-29.59,1.7-1.95,.93-1.73,3.57-.53,4.97,1.46,1.7,3.89,2.16,5.87,1.2h0Z"/><path class="cls-1" d="M319.93,241.73c.73-.65-.6,.32,.47-.36,.39-.24,.77-.47,1.18-.69,.2-.11,.42-.19,.62-.29-.56,.28-.67,.22-.1,.07,.44-.12,.89-.25,1.33-.36,1.11-.29-.82-.04,.45-.05,.49,0,.99,.02,1.48,0-1.25,.03-.22,.02,.41,.13,.18,.03,1.12,.29,.23,.04s.11,.04,.31,.13c.22,.1,.45,.22,.67,.3,.77,.29-.31-.23-.25-.16,.34,.35,.94,.67,1.34,.96,.68,.49-.19-.19-.12-.12,.18,.21,.39,.4,.57,.61,.17,.19,.32,.39,.48,.58,.09,.11,.17,.24,.27,.35,.5,.63-.47-.81-.06-.09,.3,.52,.61,1.04,.87,1.58,.13,.27,.24,.55,.36,.82,.43,.95-.07-.41,.22,.58,.36,1.24,.66,2.51,.85,3.79,.3,2.05,.35,3.79,.23,6.31-.17,3.31-.67,6.61-1.35,9.85-.97,4.62-2.35,9.13-3.97,13.56-5.1,13.93-11.42,27.88-23.19,37.52-4.47,3.66-9.69,6.57-15.35,7.87-2.08,.48-4.78,.71-6.81,.55-2.47-.2-4.2-.71-6.52-1.81-1.77-.84-4.47-.48-5.33,1.47s.74,4.06,2.51,4.9c10.82,5.14,23.32,2.31,32.98-3.99,13.18-8.59,21.14-22.13,26.95-36.33,4.82-11.76,9.27-24.84,8.32-37.72-.51-7.02-3.41-14.01-9.99-17.37-5.52-2.82-12.31-1.71-16.85,2.37-1.63,1.46-.44,4.05,1,5.12,1.77,1.3,4.17,1.36,5.81-.11h0Z"/></g><g><path class="cls-1" d="M180.75,138.41c-4.64,4.21-6.88,10.15-6.42,16.37,.2,2.64,.95,5.04,2.1,7.27,1.12,2.21,2.63,4.23,4.36,6.1,.4,.43,.79,.87,1.19,1.3h.01c4.95,5.41,9.91,10.82,14.88,16.24,2.58,2.8-5.27,6.81-7.41,4.48-5.73-6.26-11.55-12.46-17.21-18.77-.52-.58-1.02-1.18-1.47-1.8-1.69-2.26-3-4.75-3.83-7.39-1.06-3.32-1.39-6.88-.83-10.43,1.02-6.5,4.52-11.68,9.33-16.03,7.73-7,16.57-13.32,19.71-23.7,2.17-7.14,1.44-15.07-1.69-21.8-1.59-3.41-3.83-6.12-6.22-8.98-2.47-2.95-4.54-6.25-6-9.8-6.08-14.83-1.43-31.48,10.19-42.19,1.32-1.21,4.2-2.32,5.96-1.5,1.85,.88,1.02,2.64-.16,3.73-12.39,11.42-13.58,31.42-3.18,44.54,2.26,2.85,4.72,5.42,6.5,8.62,1.8,3.19,3.03,6.67,3.66,10.26,1.32,7.39,.29,15.09-3.13,21.81-4.52,8.85-13.09,15.09-20.32,21.67Z"/><path class="cls-1" d="M149.73,135.92c-5.58,7.8-6.42,18.27-2.91,27.05,1.03,2.55,2.42,4.96,4.16,7.11,.04,.05,.09,.11,.13,.16,3.98,4.9,8.55,9.4,12.81,14.04,2.58,2.81-5.26,6.83-7.41,4.49-2.58-2.82-5.17-5.64-7.75-8.45-2.79-3.05-5.68-6-7.85-9.52h-.01c-.24-.38-.48-.77-.7-1.18-1.08-1.96-1.94-4-2.56-6.1-3.05-10.26-.67-21.8,6.26-30.16,2.03-2.45,4.54-4.42,6.62-6.84,2.11-2.44,3.9-5.09,5.32-7.98,2.81-5.74,4.15-12.02,3.98-18.4-.16-6.31-1.92-12.52-4.98-18.06-2.39-4.31-5.71-7.8-9.01-11.39-3.75-4.1-6.54-8.32-7.07-13.99-.63-6.88,2.5-13.3,7.46-17.93,1.29-1.22,4.2-2.32,5.96-1.5,1.85,.88,.99,2.63-.17,3.71-5.07,4.75-6.17,12.54-3.43,18.77,1.8,4.08,5.38,7.19,8.34,10.45,8.32,9.19,12.54,21.49,11.06,33.84-.75,6.23-2.85,12.26-6.16,17.6-1.69,2.73-3.62,5.26-5.85,7.57-2.14,2.22-4.43,4.17-6.24,6.71Z"/></g></svg>