<?xml version="1.0" encoding="UTF-8"?><svg id="Layer_1" xmlns="http://www.w3.org/2000/svg" viewBox="0 0 383.46 524.35"><defs><style>.cls-1{fill:#ede5bb;}</style></defs><g><path class="cls-1" d="M218.29,127.61c-4.56,5.75-10.79,10.43-16.21,15.36-6.46,5.87-8.14,14.92-5.03,22.58,.86,2.14,2.1,4.17,3.73,6,.46,.51,.58,1.06,.46,1.6-.54,2.47-6.14,4.82-7.87,2.87-.92-1.04-1.76-2.14-2.48-3.29-1.49-2.32-2.59-4.86-3.22-7.51-.69-2.93-.82-5.99-.3-9.06,1.03-6.13,4.29-11.2,8.86-15.36,2.83-2.56,5.65-5.12,8.48-7.68,2.8-2.53,5.59-4.96,7.74-8.1,7.33-10.63,6.54-25.29-1.03-35.57-.66-.9-1.4-1.73-2.15-2.55-3.92-4.27-7.84-8.54-11.76-12.81-1.73-1.89-3.59-3.73-5.22-5.72-4.61-5.66-3.06-12.93,1.93-17.75,1.28-1.23,4.23-2.32,5.96-1.5,1.88,.88,.98,2.63-.16,3.73-3.8,3.64-2.06,9.16,1.02,12.52,2.79,3.05,5.58,6.08,8.36,9.12,5.3,5.76,11.26,11.31,14.19,18.72,4.57,11.47,2.38,24.74-5.28,34.39Z"/><path class="cls-1" d="M280.22,180.61c-.38,2.11-2.81,2.99-4.73,2.42-2.81-.84-5.67-1.59-8.55-2.24-16-3.69-32.47-5.39-48.83-6.62-1.66-.12-3.34-.25-5.01-.35-.56-.04-1.08-.31-1.4-.76-.94-1.33-1.71-2.75-2.3-4.21v-.03c-.52-1.25,.47-2.6,1.81-2.51,6.38,.41,12.74,.93,19.1,1.57,15.58,1.56,31.46,3.53,46.48,8.07,1.96,.59,3.84,2.48,3.43,4.67Z"/></g><g><path class="cls-1" d="M163.73,141.34c-4.64,4.21-6.88,10.15-6.42,16.37,.2,2.64,.95,5.04,2.1,7.27,1.12,2.21,2.63,4.23,4.36,6.1,.4,.43,.79,.87,1.19,1.3h.01c4.95,5.41,9.91,10.82,14.88,16.24,2.58,2.8-5.27,6.81-7.41,4.48-5.73-6.26-11.55-12.46-17.21-18.77-.52-.58-1.02-1.18-1.47-1.8-1.69-2.26-3-4.75-3.83-7.39-1.06-3.32-1.39-6.88-.83-10.43,1.02-6.5,4.52-11.68,9.33-16.03,7.73-7,16.57-13.32,19.71-23.7,2.17-7.14,1.44-15.07-1.69-21.8-1.59-3.41-3.83-6.12-6.22-8.98-2.47-2.95-4.54-6.25-6-9.8-6.08-14.83-1.43-31.48,10.19-42.19,1.32-1.21,4.2-2.32,5.96-1.5,1.85,.88,1.02,2.64-.16,3.73-12.39,11.42-13.58,31.42-3.18,44.54,2.26,2.85,4.72,5.42,6.5,8.62,1.8,3.19,3.03,6.67,3.66,10.26,1.32,7.39,.29,15.09-3.13,21.81-4.52,8.85-13.09,15.09-20.32,21.67Z"/><path class="cls-1" d="M132.71,138.85c-5.58,7.8-6.42,18.27-2.91,27.05,1.03,2.55,2.42,4.96,4.16,7.11,.04,.05,.09,.11,.13,.16,3.98,4.9,8.55,9.4,12.81,14.04,2.58,2.81-5.26,6.83-7.41,4.49-2.58-2.82-5.17-5.64-7.75-8.45-2.79-3.05-5.68-6-7.85-9.52h-.01c-.24-.38-.48-.77-.7-1.18-1.08-1.96-1.94-4-2.56-6.1-3.05-10.26-.67-21.8,6.26-30.16,2.03-2.45,4.54-4.42,6.62-6.84,2.11-2.44,3.9-5.09,5.32-7.98,2.81-5.74,4.15-12.02,3.98-18.4-.16-6.31-1.92-12.52-4.98-18.06-2.39-4.31-5.71-7.8-9.01-11.39-3.75-4.1-6.54-8.32-7.07-13.99-.63-6.88,2.5-13.3,7.46-17.93,1.29-1.22,4.2-2.32,5.96-1.5,1.85,.88,.99,2.63-.17,3.71-5.07,4.75-6.17,12.54-3.43,18.77,1.8,4.08,5.38,7.19,8.34,10.45,8.32,9.19,12.54,21.49,11.06,33.84-.75,6.23-2.85,12.26-6.16,17.6-1.69,2.73-3.62,5.26-5.85,7.57-2.14,2.22-4.43,4.17-6.24,6.71Z"/></g><path class="cls-1" d="M215.16,467.24c-1,2.94-2.62,6.81-4.64,7.19-7.15,1.39-10.5,2.03-17.74,2.56-15.29,1.13-30.62,1.21-45.91,.24-11.41-.74-23.17-1.85-34.22-5-3.01-.85-5.88-1.82-8.28-3.87-5.56-4.79-10.89-9.86-15.88-15.23-17.44-18.8-30.74-41-39.43-65.04-6.24-17.23-10.05-35.4-11.37-53.66-.45-6.13-.73-12.4-.42-18.6-.01-.11-.01-.21-.01-.31v-104.14c0-3.75,6.58-4.17,6.58-.45v104.14c0,.12-.01,.25-.03,.35h0c.01,.22,.01,.45-.01,.66-.01,.12-.03,.24-.03,.35-.07,.96-.15,1.92-.18,2.87-.03,.38-.04,.77-.05,1.15,0,.2-.01,.42-.01,.55-.03,1.02-.04,2.06-.04,3.08-.03,5.87,.26,11.73,.82,17.59,1.68,17.69,5.65,35.07,12.23,51.75,8.94,22.67,22.38,43.29,39.71,60.51,2.36,2.35,4.8,4.65,7.31,6.86,.9,.8,1.94,1.54,2.81,2.38-.5-.52,.11,.12,.63,.35,.44,.21,1.48,.6,1.49,.6,.04,.01,1.35,.43,1.89,.58,1.84,.54,3.71,.98,5.59,1.38,12.51,2.68,25.43,3.77,38.21,4.1,45.5,1.18,54.47-3.56,57.1-4.25,.46-.12,1.11-.37,1.8-.66,1.24-.51,2.52,.67,2.1,1.94Z"/><path class="cls-1" d="M352.19,296.95c-.25-9.28-1-18.65-3.16-27.71-1.69-7.04-4.2-14.54-9.31-19.92-5.36-5.62-12.6-7.55-20.2-6.14-7.49,1.38-14.41,6.04-19.54,11.52-.32,.35-.65,.7-.94,1.06-2.52,3.08,2.85,6.48,5.06,3.79,3.18-3.89,7.44-7.13,11.97-9.25,1.85-.87,3.8-1.51,5.81-1.86,.95-.17,1.93-.24,2.89-.25,.42-.01,.85,0,1.27,.01,.21,.03,.44,.04,.65,.08,.69,.09,1.36,.24,2.03,.41,.09,.03,.17,.04,.21,.05,0,0,.05,.03,.18,.08,.36,.13,.71,.26,1.07,.42,.26,.12,.52,.25,.77,.37,.11,.05,.21,.11,.3,.16,.04,.03,.07,.04,.09,.05,.03,.01,.05,.03,.07,.04s.04,.03,.05,.04c.57,.37,1.12,.75,1.64,1.18,.28,.21,.53,.43,.78,.66,.01,.01,.08,.05,.38,.39,.53,.55,1.03,1.12,1.51,1.72,1.02,1.3,1.61,2.24,2.34,3.58,1.62,3.06,2.85,6.34,3.77,9.66,2.29,8.27,3.17,16.92,3.59,25.46,.46,9.32,.3,18.68-.22,28-.38,6.73-1.12,13.45-2.43,20.07-2.47,12.51-7.02,25.33-15.92,34.59-9.93,10.32-23.83,13.78-38.11,12.59-2.34-.21-4.68-.52-6.99-.92,.77-2.3,1.51-4.62,2.19-6.96,.45,.33,.96,.55,1.49,.62,8.28,.97,16.66,.16,24.19-3.6,6.57-3.27,11.85-8.56,15.92-14.58,8.39-12.44,11.98-27.9,13.86-42.58,1.31-10.16,1.47-20.58-.01-30.74-1.14-7.78-3.14-16.56-8.42-22.71-4.37-5.11-11.02-6.96-17.21-4.06-5.55,2.6-9.6,8.06-12.81,13.05-3.14,4.88-5.77,10.11-8.11,15.44-.16-4.14-.3-8.26-.46-12.39-.44-11.14-.86-22.29-1.28-33.43-.38-10.21-.78-20.42-1.16-30.63-.2-5.28-.4-10.57-.61-15.84,1.76-2.78-2.7-7.25-6.17-5.47-4.68,2.39-8.49,3.45-13.59,4.75-6.84,1.75-13.81,3.02-20.78,4.07-18.83,2.86-37.89,4.2-56.91,4.86-21.88,.75-43.79,.54-65.63-.75-17.29-1.02-34.67-2.59-51.68-5.89-6-1.17-12-2.55-17.78-4.54-.57-.2-1.14-.39-1.69-.6-.21-.08-.44-.16-.65-.25-.01,0-.01-.01-.03,0-.03-.03-.05-.03-.07-.03h-.01s-.04-.03-.07-.04c-.03-.01-.07-.03-.08-.03-.91-.39-1.81-.79-2.7-1.23-.78-.41-1.53-.85-2.29-1.31-.03-.01-.05-.04-.08-.04h-.01s-.07-.07-.11-.11c-.32-.28-.65-.54-.96-.8-.01-.01-.03-.03-.04-.03-.49-.42-.26-.33-.05-.08-.11-.16-.24-.35-.37-.5t-.01-.03h0c.07-.24,.07-.35,.05-.41-.03,.12-.04,.24-.07,.37-.01-.16,0-.28,.03-.34,.01-.01,.03-.04,.03-.04t.01-.03s.01-.03,.03-.04c.13-.18,.26-.41,.37-.6,0-.01,.01-.01,.03-.03,.03-.05,.08-.09,.12-.13,.24-.22,.46-.47,.71-.68,.26-.24,.55-.45,.83-.67,.01-.01,.04-.03,.07-.05,.15-.09,.44-.29,.53-.34,1.7-.97,3.43-1.82,5.26-2.56,2.56-1.02,3.86-1.43,6.53-2.19,2.99-.85,6.01-1.59,9.05-2.24,7.41-1.61,14.92-2.8,22.43-3.78,6.72-.88,20.91-.75,19.21-3.74-.67-1.18-1.24-2.41-1.73-3.68-.45-1.17-1.64-1.9-2.91-1.78-2.62,.24-5.23,.5-7.83,.77-14.81,1.58-29.98,3.51-44.2,8.1-5.94,1.92-17.95,5.64-16.74,13.95,.58,3.9,4.11,6.64,7.29,8.49,4.4,2.57,9.45,4.16,14.35,5.51,15.58,4.32,31.92,6.25,47.98,7.72,21.84,2.01,43.81,2.7,65.74,2.49,21.24-.18,42.54-1.21,63.65-3.64,14.55-1.65,29.42-3.73,43.28-8.57,.4-.14,.81-.29,1.2-.43,.09,2.32,.17,4.65,.26,6.98,.36,9.37,.71,18.73,1.07,28.09,.42,11.21,.86,22.41,1.28,33.61,.36,9.42,.71,18.86,1.07,28.3,.16,4.06,.32,8.11,.46,12.18,.12,3.07,.09,6.14,.01,9.21-.11,3.61-.3,7.22-.59,10.82-.01,.29-.04,.56-.07,.85v.03s0,.04-.01,.16h0v.04c-.05,.55-.11,1.1-.16,1.64-.11,1.15-.21,2.3-.34,3.44-.26,2.47-.58,4.93-.92,7.39-1.65,11.79-4.16,23.47-7.6,34.88-4.06,13.45-9.42,26.49-16.28,38.77-7.65,13.72-17.11,26.36-28.38,37.34-2.97,2.9-6.05,5.67-9.25,8.33-1.27,1.06-.95,3.1,.28,4.04,1.45,1.09,3.36,.76,4.66-.33,12.63-10.53,23.53-23,32.46-36.75,7.9-12.14,14.19-25.24,19.13-38.81,.18,.08,.38,.13,.57,.16,16.54,2.8,34.14,1.3,47.51-9.62,10.99-8.98,16.98-22.62,20.23-36.06,3.88-16.09,4.36-33.13,3.9-49.59Zm-62.14,57.37c1.69-9.54,2.81-19.18,3.36-28.85,.28-4.74,.42-9.49,.26-14.24-.04-1.36-.09-2.74-.15-4.12,.04-.07,.05-.13,.08-.2,.22-.71,.48-1.4,.73-2.11,.12-.34,.24-.68,.36-1.02,.07-.2,.25-.7,.34-.93,0,0,.01-.01,.01-.04,0,0,.01-.03,.01-.04h.01v-.03s.01-.03,.01-.03c.05-.16,.15-.39,.16-.46,.09-.21,.17-.43,.25-.64,.22-.59,.45-1.17,.67-1.76,2.17-5.49,4.57-10.88,7.38-16.08,2.85-5.29,5.92-10.34,10.36-14.28,1.14-1.02,1.43-1.25,2.52-1.89,.5-.3,1.02-.55,1.56-.8,.01-.01,.03-.01,.04-.03h.03s.01,0,.01-.01c.03,0,.05,0,.08-.01,.3-.09,.59-.2,.9-.28,.08-.01,.37-.07,.53-.11h.04s.04-.01,.05-.01c.12-.01,.22-.03,.26-.03,.29,0,.58-.01,.87-.01h.04s.04,0,.07,.01c.13,.01,.37,.05,.42,.07,.17,.04,.34,.08,.52,.12,.01,0,.04,0,.05,.01,.03,0,.05,.01,.08,.03,.15,.05,.37,.13,.46,.16,.22,.11,.45,.2,.66,.32h.01c.08,.07,.41,.26,.53,.34,1.24,.85,1.64,1.27,2.66,2.61,.98,1.26,1.6,2.36,2.31,3.85,1.64,3.4,2.71,7.04,3.47,10.72,1.93,9.27,2.26,18.91,1.49,28.32-1.15,14.15-4.11,28.97-10.82,41.61-3.08,5.79-7.04,11.16-12.41,15.07-5.19,3.79-11.56,5.75-18.1,5.89-1.9,.04-3.82-.05-5.71-.28-.38-.04-.79-.04-1.2,.01,1.9-6.88,3.46-13.83,4.7-20.86Z"/></svg>