<svg width="209" height="117" viewBox="0 0 209 117" fill="none" xmlns="http://www.w3.org/2000/svg">
<g id="main-logo">
<path id="Vector" d="M92.1556 58.3618C92.1556 61.4725 91.4472 64.3586 90.0478 66.9855C88.6483 69.6124 86.5924 71.9282 83.8972 73.8984C81.5302 75.5747 78.9732 76.8191 76.2089 77.6486C73.4446 78.4781 70.4211 78.8929 67.1212 78.8929C63.8213 78.8929 60.8324 78.4781 57.9816 77.6313C55.1309 76.8018 52.5567 75.5575 50.2761 73.8984C47.5809 71.9109 45.5422 69.6297 44.1428 67.0374C42.7433 64.4451 42.0695 61.5244 42.0695 58.2753C42.0695 55.0263 42.6742 52.3821 43.8836 49.9972C45.093 47.6123 46.9762 45.4174 49.5505 43.3954C51.9692 41.4598 54.6472 40.0427 57.6188 39.144C60.5905 38.2454 63.7522 37.796 67.1212 37.796C70.4902 37.796 73.8074 38.2454 76.6926 39.1613C79.5779 40.0773 82.1349 41.408 84.3982 43.1535C87.0243 45.1582 88.9593 47.4049 90.2378 49.8935C91.5163 52.3821 92.1383 55.1991 92.1383 58.3445L92.1556 58.3618ZM85.2793 58.5519C85.2793 55.8904 84.761 53.5228 83.7417 51.4316C82.7223 49.3405 80.9428 47.5086 78.4376 45.9013C76.9518 44.9508 75.2241 44.2077 73.2372 43.6719C71.2504 43.1362 69.2463 42.877 67.2248 42.877C64.737 42.877 62.5428 43.1535 60.6596 43.6892C58.7764 44.225 56.9277 45.1236 55.1309 46.3507C53.0231 47.7851 51.4855 49.5306 50.4834 51.5526C49.4814 53.5746 48.9803 55.804 48.9803 58.2235C48.9803 61.1269 49.6023 63.6328 50.829 65.7412C52.0556 67.8496 53.8697 69.6124 56.2539 71.0641C57.7052 71.9455 59.3465 72.6022 61.1779 73.0688C63.0093 73.5355 64.9616 73.7601 67.0694 73.7601C69.2981 73.7601 71.4404 73.4663 73.5137 72.896C75.5696 72.3084 77.3492 71.5307 78.8177 70.5111C80.9946 69.0767 82.6187 67.3312 83.6726 65.3092C84.7265 63.2872 85.262 61.0232 85.262 58.5346L85.2793 58.5519Z" fill="#01647B"/>
<path id="Vector_2" d="M145.127 77.9078H138.596L138.631 73.5009H138.596C135.279 75.0908 131.772 76.387 128.092 77.3721C124.412 78.3572 120.956 78.8584 117.743 78.8584C112.923 78.8584 109.26 77.6832 106.737 75.3501C104.215 72.9997 102.971 69.768 102.971 65.6548C102.971 63.6155 102.988 61.5589 103.023 59.4332C103.057 57.3075 103.075 55.2855 103.075 53.3326C103.075 51.3798 103.057 48.6492 103.023 45.1064C102.988 41.5635 102.971 39.4378 102.971 38.7811H109.657C109.657 39.4033 109.64 41.3216 109.605 44.536C109.571 47.7505 109.554 50.4638 109.554 52.6932C109.554 55.1818 109.571 57.4458 109.605 59.4678C109.64 61.4898 109.657 62.9934 109.657 63.9784C109.657 66.8646 110.521 69.1285 112.231 70.7876C113.942 72.4467 116.568 73.2762 120.093 73.2762C122.58 73.2762 125.345 72.896 128.351 72.1183C131.374 71.3579 134.795 70.0963 138.596 68.3163C138.631 62.8033 138.631 59.0012 138.631 56.91C138.631 53.3845 138.596 49.7207 138.527 45.9359C138.458 42.1511 138.423 39.7662 138.423 38.7811H145.11C145.11 39.5588 145.092 41.6672 145.058 45.1064C145.023 48.5455 145.006 52.4858 145.006 56.91C145.006 62.0601 145.023 66.0523 145.058 68.8693C145.092 71.6863 145.11 74.6934 145.11 77.8906L145.127 77.9078Z" fill="#01647B"/>
<path id="Vector_3" d="M167.241 31.5399H159.933V24.6962H167.241V31.5399ZM166.896 77.9251H160.279C160.279 77.2511 160.296 74.4514 160.331 69.526C160.365 64.5833 160.382 60.6257 160.382 57.6359C160.382 55.0609 160.365 52.313 160.331 49.4269C160.296 46.5408 160.279 42.9979 160.279 38.8157H166.896C166.896 42.8424 166.879 46.1606 166.844 48.8047C166.81 51.4489 166.792 54.3869 166.792 57.6359C166.792 62.3539 166.81 66.7436 166.844 70.8222C166.879 74.9007 166.896 77.2684 166.896 77.9424V77.9251Z" fill="#01647B"/>
</g>
</svg>
